<?xml version="1.0" encoding="UTF-8" standalone="no"?>
<!DOCTYPE svg PUBLIC "-//W3C//DTD SVG 1.1//EN"
 "http://www.w3.org/Graphics/SVG/1.1/DTD/svg11.dtd">
<!-- Generated by graphviz version 14.1.2 (20260124.0452)
 -->
<!-- Title: pastafarianism Pages: 1 -->
<svg width="238pt" height="188pt"
 viewBox="0.00 0.00 238.00 188.00" xmlns="http://www.w3.org/2000/svg" xmlns:xlink="http://www.w3.org/1999/xlink">
<g id="graph0" class="graph" transform="scale(1 1) rotate(0) translate(4 184)">
<title>pastafarianism</title>
<polygon fill="white" stroke="none" points="-4,4 -4,-184 233.64,-184 233.64,4 -4,4"/>
<!-- BTCritter -->
<g id="node1" class="node">
<title>BTCritter</title>
<polygon fill="cyan" stroke="black" points="184.42,-154.54 184.42,-169.46 166.04,-180 140.04,-180 121.65,-169.46 121.65,-154.54 140.04,-144 166.04,-144 184.42,-154.54"/>
<text xml:space="preserve" text-anchor="middle" x="153.04" y="-158.7" font-family="Times,serif" font-size="9.00">BTCritter</text>
</g>
<!-- Chase -->
<g id="node2" class="node">
<title>Chase</title>
<polygon fill="orange" stroke="black" points="142.04,-108 88.04,-108 88.04,-72 142.04,-72 142.04,-108"/>
<text xml:space="preserve" text-anchor="middle" x="115.04" y="-86.7" font-family="Times,serif" font-size="9.00">Ⓜ Chase</text>
</g>
<!-- BTCritter&#45;&gt;Chase -->
<g id="edge1" class="edge">
<title>BTCritter&#45;&gt;Chase</title>
<path fill="none" stroke="black" d="M143.65,-143.7C139.46,-135.98 134.43,-126.71 129.76,-118.11"/>
<polygon fill="black" stroke="black" points="132.89,-116.55 125.05,-109.43 126.74,-119.89 132.89,-116.55"/>
</g>
<!-- BN_Avoid -->
<g id="node5" class="node">
<title>BN_Avoid</title>
<ellipse fill="gray" stroke="black" cx="192.04" cy="-90" rx="32.06" ry="18"/>
<text xml:space="preserve" text-anchor="middle" x="192.04" y="-86.7" font-family="Times,serif" font-size="9.00">BN_Avoid</text>
</g>
<!-- BTCritter&#45;&gt;BN_Avoid -->
<g id="edge4" class="edge">
<title>BTCritter&#45;&gt;BN_Avoid</title>
<path fill="none" stroke="black" d="M162.68,-143.7C167.09,-135.78 172.41,-126.23 177.31,-117.44"/>
<polygon fill="black" stroke="black" points="180.23,-119.38 182.04,-108.94 174.12,-115.98 180.23,-119.38"/>
</g>
<!-- BN_DetectAstronaut -->
<g id="node3" class="node">
<title>BN_DetectAstronaut</title>
<ellipse fill="gray" stroke="black" cx="53.04" cy="-18" rx="53.04" ry="18"/>
<text xml:space="preserve" text-anchor="middle" x="53.04" y="-14.7" font-family="Times,serif" font-size="9.00">BN_DetectAstronaut</text>
</g>
<!-- Chase&#45;&gt;BN_DetectAstronaut -->
<g id="edge2" class="edge">
<title>Chase&#45;&gt;BN_DetectAstronaut</title>
<path fill="none" stroke="black" d="M99.71,-71.7C92.32,-63.35 83.32,-53.18 75.2,-44.02"/>
<polygon fill="black" stroke="black" points="78.02,-41.92 68.77,-36.76 72.78,-46.56 78.02,-41.92"/>
</g>
<!-- BN_ChaseAstronaut -->
<g id="node4" class="node">
<title>BN_ChaseAstronaut</title>
<ellipse fill="gray" stroke="black" cx="177.04" cy="-18" rx="52.6" ry="18"/>
<text xml:space="preserve" text-anchor="middle" x="177.04" y="-14.7" font-family="Times,serif" font-size="9.00">BN_ChaseAstronaut</text>
</g>
<!-- Chase&#45;&gt;BN_ChaseAstronaut -->
<g id="edge3" class="edge">
<title>Chase&#45;&gt;BN_ChaseAstronaut</title>
<path fill="none" stroke="black" d="M130.37,-71.7C137.76,-63.35 146.76,-53.18 154.88,-44.02"/>
<polygon fill="black" stroke="black" points="157.3,-46.56 161.31,-36.76 152.06,-41.92 157.3,-46.56"/>
</g>
</g>
</svg>
