<?xml version="1.0" encoding="UTF-8" standalone="no"?>
<!DOCTYPE svg PUBLIC "-//W3C//DTD SVG 1.1//EN"
 "http://www.w3.org/Graphics/SVG/1.1/DTD/svg11.dtd">
<!-- Generated by graphviz version 14.1.2 (20260124.0452)
 -->
<!-- Title: pastafarianism Pages: 1 -->
<svg width="918pt" height="188pt"
 viewBox="0.00 0.00 918.00 188.00" xmlns="http://www.w3.org/2000/svg" xmlns:xlink="http://www.w3.org/1999/xlink">
<g id="graph0" class="graph" transform="scale(1 1) rotate(0) translate(4 184)">
<title>pastafarianism</title>
<polygon fill="white" stroke="none" points="-4,4 -4,-184 914.4,-184 914.4,4 -4,4"/>
<!-- BTRoam -->
<g id="node1" class="node">
<title>BTRoam</title>
<polygon fill="cyan" stroke="black" points="580.36,-154.54 580.36,-169.46 562.53,-180 537.31,-180 519.48,-169.46 519.48,-154.54 537.31,-144 562.53,-144 580.36,-154.54"/>
<text xml:space="preserve" text-anchor="middle" x="549.92" y="-158.7" font-family="Times,serif" font-size="9.00">BTRoam</text>
</g>
<!-- DetectFrozen -->
<g id="node2" class="node">
<title>DetectFrozen</title>
<polygon fill="orange" stroke="black" points="192.17,-108 117.67,-108 117.67,-72 192.17,-72 192.17,-108"/>
<text xml:space="preserve" text-anchor="middle" x="154.92" y="-86.7" font-family="Times,serif" font-size="9.00">Ⓜ DetectFrozen</text>
</g>
<!-- BTRoam&#45;&gt;DetectFrozen -->
<g id="edge1" class="edge">
<title>BTRoam&#45;&gt;DetectFrozen</title>
<path fill="none" stroke="black" d="M519.25,-155.57C451.03,-143.47 286.21,-114.27 203.7,-99.64"/>
<polygon fill="black" stroke="black" points="204.33,-96.2 193.87,-97.9 203.1,-103.09 204.33,-96.2"/>
</g>
<!-- Flee -->
<g id="node5" class="node">
<title>Flee</title>
<polygon fill="orange" stroke="black" points="404.92,-108 350.92,-108 350.92,-72 404.92,-72 404.92,-108"/>
<text xml:space="preserve" text-anchor="middle" x="377.92" y="-86.7" font-family="Times,serif" font-size="9.00">Ⓜ Flee</text>
</g>
<!-- BTRoam&#45;&gt;Flee -->
<g id="edge4" class="edge">
<title>BTRoam&#45;&gt;Flee</title>
<path fill="none" stroke="black" d="M524.91,-150.82C496.16,-139.12 448.66,-119.79 415.47,-106.28"/>
<polygon fill="black" stroke="black" points="417.22,-103.21 406.64,-102.69 414.58,-109.7 417.22,-103.21"/>
</g>
<!-- Full -->
<g id="node8" class="node">
<title>Full</title>
<polygon fill="orange" stroke="black" points="576.92,-108 522.92,-108 522.92,-72 576.92,-72 576.92,-108"/>
<text xml:space="preserve" text-anchor="middle" x="549.92" y="-86.7" font-family="Times,serif" font-size="9.00">Ⓜ Full</text>
</g>
<!-- BTRoam&#45;&gt;Full -->
<g id="edge7" class="edge">
<title>BTRoam&#45;&gt;Full</title>
<path fill="none" stroke="black" d="M549.92,-143.7C549.92,-136.41 549.92,-127.73 549.92,-119.54"/>
<polygon fill="black" stroke="black" points="553.42,-119.62 549.92,-109.62 546.42,-119.62 553.42,-119.62"/>
</g>
<!-- DetectFlower -->
<g id="node11" class="node">
<title>DetectFlower</title>
<polygon fill="orange" stroke="black" points="749.54,-108 674.29,-108 674.29,-72 749.54,-72 749.54,-108"/>
<text xml:space="preserve" text-anchor="middle" x="711.92" y="-86.7" font-family="Times,serif" font-size="9.00">Ⓜ DetectFlower</text>
</g>
<!-- BTRoam&#45;&gt;DetectFlower -->
<g id="edge10" class="edge">
<title>BTRoam&#45;&gt;DetectFlower</title>
<path fill="none" stroke="black" d="M574.17,-150.52C597.68,-140.36 633.99,-124.67 663.44,-111.95"/>
<polygon fill="black" stroke="black" points="664.76,-115.19 672.55,-108.01 661.98,-108.77 664.76,-115.19"/>
</g>
<!-- BN_AvoidObstacle -->
<g id="node14" class="node">
<title>BN_AvoidObstacle</title>
<ellipse fill="gray" stroke="black" cx="817.92" cy="-90" rx="49.98" ry="18"/>
<text xml:space="preserve" text-anchor="middle" x="817.92" y="-86.7" font-family="Times,serif" font-size="9.00">BN_AvoidObstacle</text>
</g>
<!-- BTRoam&#45;&gt;BN_AvoidObstacle -->
<g id="edge13" class="edge">
<title>BTRoam&#45;&gt;BN_AvoidObstacle</title>
<path fill="none" stroke="black" d="M579.76,-153.75C620.39,-143.81 695.33,-125.22 758.92,-108 762.21,-107.11 765.6,-106.18 769.01,-105.22"/>
<polygon fill="black" stroke="black" points="769.75,-108.65 778.43,-102.57 767.85,-101.91 769.75,-108.65"/>
</g>
<!-- BN_DetectFrozen -->
<g id="node3" class="node">
<title>BN_DetectFrozen</title>
<ellipse fill="gray" stroke="black" cx="46.92" cy="-18" rx="46.92" ry="18"/>
<text xml:space="preserve" text-anchor="middle" x="46.92" y="-14.7" font-family="Times,serif" font-size="9.00">BN_DetectFrozen</text>
</g>
<!-- DetectFrozen&#45;&gt;BN_DetectFrozen -->
<g id="edge2" class="edge">
<title>DetectFrozen&#45;&gt;BN_DetectFrozen</title>
<path fill="none" stroke="black" d="M127.94,-71.52C113.15,-61.93 94.7,-49.97 79.15,-39.89"/>
<polygon fill="black" stroke="black" points="81.46,-37.22 71.17,-34.72 77.66,-43.09 81.46,-37.22"/>
</g>
<!-- BN_DoNothing -->
<g id="node4" class="node">
<title>BN_DoNothing</title>
<ellipse fill="gray" stroke="black" cx="154.92" cy="-18" rx="42.99" ry="18"/>
<text xml:space="preserve" text-anchor="middle" x="154.92" y="-14.7" font-family="Times,serif" font-size="9.00">BN_DoNothing</text>
</g>
<!-- DetectFrozen&#45;&gt;BN_DoNothing -->
<g id="edge3" class="edge">
<title>DetectFrozen&#45;&gt;BN_DoNothing</title>
<path fill="none" stroke="black" d="M154.92,-71.7C154.92,-64.41 154.92,-55.73 154.92,-47.54"/>
<polygon fill="black" stroke="black" points="158.42,-47.62 154.92,-37.62 151.42,-47.62 158.42,-47.62"/>
</g>
<!-- BN_DetectCritter -->
<g id="node6" class="node">
<title>BN_DetectCritter</title>
<ellipse fill="gray" stroke="black" cx="261.92" cy="-18" rx="45.61" ry="18"/>
<text xml:space="preserve" text-anchor="middle" x="261.92" y="-14.7" font-family="Times,serif" font-size="9.00">BN_DetectCritter</text>
</g>
<!-- Flee&#45;&gt;BN_DetectCritter -->
<g id="edge5" class="edge">
<title>Flee&#45;&gt;BN_DetectCritter</title>
<path fill="none" stroke="black" d="M350.43,-72.41C334.08,-62.54 313.2,-49.94 295.83,-39.46"/>
<polygon fill="black" stroke="black" points="297.73,-36.52 287.36,-34.35 294.11,-42.52 297.73,-36.52"/>
</g>
<!-- BN_FleeFromCritter -->
<g id="node7" class="node">
<title>BN_FleeFromCritter</title>
<ellipse fill="gray" stroke="black" cx="377.92" cy="-18" rx="52.6" ry="18"/>
<text xml:space="preserve" text-anchor="middle" x="377.92" y="-14.7" font-family="Times,serif" font-size="9.00">BN_FleeFromCritter</text>
</g>
<!-- Flee&#45;&gt;BN_FleeFromCritter -->
<g id="edge6" class="edge">
<title>Flee&#45;&gt;BN_FleeFromCritter</title>
<path fill="none" stroke="black" d="M377.92,-71.7C377.92,-64.41 377.92,-55.73 377.92,-47.54"/>
<polygon fill="black" stroke="black" points="381.42,-47.62 377.92,-37.62 374.42,-47.62 381.42,-47.62"/>
</g>
<!-- BN_CheckInventoryFull -->
<g id="node9" class="node">
<title>BN_CheckInventoryFull</title>
<ellipse fill="gray" stroke="black" cx="509.92" cy="-18" rx="60.91" ry="18"/>
<text xml:space="preserve" text-anchor="middle" x="509.92" y="-14.7" font-family="Times,serif" font-size="9.00">BN_CheckInventoryFull</text>
</g>
<!-- Full&#45;&gt;BN_CheckInventoryFull -->
<g id="edge8" class="edge">
<title>Full&#45;&gt;BN_CheckInventoryFull</title>
<path fill="none" stroke="black" d="M540.03,-71.7C535.58,-63.9 530.21,-54.51 525.25,-45.83"/>
<polygon fill="black" stroke="black" points="528.44,-44.36 520.44,-37.42 522.37,-47.84 528.44,-44.36"/>
</g>
<!-- BN_ReturnToBase -->
<g id="node10" class="node">
<title>BN_ReturnToBase</title>
<ellipse fill="gray" stroke="black" cx="637.92" cy="-18" rx="49.1" ry="18"/>
<text xml:space="preserve" text-anchor="middle" x="637.92" y="-14.7" font-family="Times,serif" font-size="9.00">BN_ReturnToBase</text>
</g>
<!-- Full&#45;&gt;BN_ReturnToBase -->
<g id="edge9" class="edge">
<title>Full&#45;&gt;BN_ReturnToBase</title>
<path fill="none" stroke="black" d="M571.67,-71.7C582.95,-62.73 596.87,-51.65 609.03,-41.98"/>
<polygon fill="black" stroke="black" points="611.09,-44.81 616.74,-35.85 606.73,-39.34 611.09,-44.81"/>
</g>
<!-- BN_DetectFlower -->
<g id="node12" class="node">
<title>BN_DetectFlower</title>
<ellipse fill="gray" stroke="black" cx="751.92" cy="-18" rx="47.36" ry="18"/>
<text xml:space="preserve" text-anchor="middle" x="751.92" y="-14.7" font-family="Times,serif" font-size="9.00">BN_DetectFlower</text>
</g>
<!-- DetectFlower&#45;&gt;BN_DetectFlower -->
<g id="edge11" class="edge">
<title>DetectFlower&#45;&gt;BN_DetectFlower</title>
<path fill="none" stroke="black" d="M721.81,-71.7C726.26,-63.9 731.63,-54.51 736.59,-45.83"/>
<polygon fill="black" stroke="black" points="739.47,-47.84 741.39,-37.42 733.39,-44.36 739.47,-47.84"/>
</g>
<!-- BN_GoToFlower -->
<g id="node13" class="node">
<title>BN_GoToFlower</title>
<ellipse fill="gray" stroke="black" cx="863.92" cy="-18" rx="46.48" ry="18"/>
<text xml:space="preserve" text-anchor="middle" x="863.92" y="-14.7" font-family="Times,serif" font-size="9.00">BN_GoToFlower</text>
</g>
<!-- DetectFlower&#45;&gt;BN_GoToFlower -->
<g id="edge12" class="edge">
<title>DetectFlower&#45;&gt;BN_GoToFlower</title>
<path fill="none" stroke="black" d="M749.88,-71.52C772.66,-61.03 801.57,-47.71 824.58,-37.12"/>
<polygon fill="black" stroke="black" points="826.03,-40.3 833.65,-32.94 823.1,-33.94 826.03,-40.3"/>
</g>
</g>
</svg>
