<?xml version="1.0" encoding="UTF-8" standalone="no"?>
<!DOCTYPE svg PUBLIC "-//W3C//DTD SVG 1.1//EN"
 "http://www.w3.org/Graphics/SVG/1.1/DTD/svg11.dtd">
<!-- Generated by graphviz version 14.1.2 (20260124.0452)
 -->
<!-- Title: pastafarianism Pages: 1 -->
<svg width="745pt" height="332pt"
 viewBox="0.00 0.00 745.00 332.00" xmlns="http://www.w3.org/2000/svg" xmlns:xlink="http://www.w3.org/1999/xlink">
<g id="graph0" class="graph" transform="scale(1 1) rotate(0) translate(4 328)">
<title>pastafarianism</title>
<polygon fill="white" stroke="none" points="-4,4 -4,-328 740.9,-328 740.9,4 -4,4"/>
<!-- BTRoam -->
<g id="node1" class="node">
<title>BTRoam</title>
<polygon fill="cyan" stroke="black" points="350.36,-298.54 350.36,-313.46 332.53,-324 307.31,-324 289.48,-313.46 289.48,-298.54 307.31,-288 332.53,-288 350.36,-298.54"/>
<text xml:space="preserve" text-anchor="middle" x="319.92" y="-302.7" font-family="Times,serif" font-size="9.00">BTRoam</text>
</g>
<!-- DetectFrozen -->
<g id="node2" class="node">
<title>DetectFrozen</title>
<polygon fill="orange" stroke="black" points="192.17,-252 117.67,-252 117.67,-216 192.17,-216 192.17,-252"/>
<text xml:space="preserve" text-anchor="middle" x="154.92" y="-230.7" font-family="Times,serif" font-size="9.00">Ⓜ DetectFrozen</text>
</g>
<!-- BTRoam&#45;&gt;DetectFrozen -->
<g id="edge1" class="edge">
<title>BTRoam&#45;&gt;DetectFrozen</title>
<path fill="none" stroke="black" d="M295.57,-294.67C271.28,-284.36 233.29,-268.25 202.91,-255.36"/>
<polygon fill="black" stroke="black" points="204.48,-252.23 193.91,-251.54 201.75,-258.67 204.48,-252.23"/>
</g>
<!-- Flee -->
<g id="node5" class="node">
<title>Flee</title>
<polygon fill="orange" stroke="black" points="346.92,-252 292.92,-252 292.92,-216 346.92,-216 346.92,-252"/>
<text xml:space="preserve" text-anchor="middle" x="319.92" y="-230.7" font-family="Times,serif" font-size="9.00">Ⓜ Flee</text>
</g>
<!-- BTRoam&#45;&gt;Flee -->
<g id="edge4" class="edge">
<title>BTRoam&#45;&gt;Flee</title>
<path fill="none" stroke="black" d="M319.92,-287.7C319.92,-280.41 319.92,-271.73 319.92,-263.54"/>
<polygon fill="black" stroke="black" points="323.42,-263.62 319.92,-253.62 316.42,-263.62 323.42,-263.62"/>
</g>
<!-- Selector -->
<g id="node8" class="node">
<title>Selector</title>
<polygon fill="cyan" stroke="black" points="503.99,-226.54 503.99,-241.46 487.55,-252 464.29,-252 447.85,-241.46 447.85,-226.54 464.29,-216 487.55,-216 503.99,-226.54"/>
<text xml:space="preserve" text-anchor="middle" x="475.92" y="-230.7" font-family="Times,serif" font-size="9.00">Selector</text>
</g>
<!-- BTRoam&#45;&gt;Selector -->
<g id="edge7" class="edge">
<title>BTRoam&#45;&gt;Selector</title>
<path fill="none" stroke="black" d="M343.95,-294.22C370.44,-282.33 413.22,-263.13 442.86,-249.84"/>
<polygon fill="black" stroke="black" points="444.06,-253.13 451.75,-245.85 441.19,-246.75 444.06,-253.13"/>
</g>
<!-- BN_DetectFrozen -->
<g id="node3" class="node">
<title>BN_DetectFrozen</title>
<ellipse fill="gray" stroke="black" cx="46.92" cy="-162" rx="46.92" ry="18"/>
<text xml:space="preserve" text-anchor="middle" x="46.92" y="-158.7" font-family="Times,serif" font-size="9.00">BN_DetectFrozen</text>
</g>
<!-- DetectFrozen&#45;&gt;BN_DetectFrozen -->
<g id="edge2" class="edge">
<title>DetectFrozen&#45;&gt;BN_DetectFrozen</title>
<path fill="none" stroke="black" d="M127.94,-215.52C113.15,-205.93 94.7,-193.97 79.15,-183.89"/>
<polygon fill="black" stroke="black" points="81.46,-181.22 71.17,-178.72 77.66,-187.09 81.46,-181.22"/>
</g>
<!-- BN_DoNothing -->
<g id="node4" class="node">
<title>BN_DoNothing</title>
<ellipse fill="gray" stroke="black" cx="154.92" cy="-162" rx="42.99" ry="18"/>
<text xml:space="preserve" text-anchor="middle" x="154.92" y="-158.7" font-family="Times,serif" font-size="9.00">BN_DoNothing</text>
</g>
<!-- DetectFrozen&#45;&gt;BN_DoNothing -->
<g id="edge3" class="edge">
<title>DetectFrozen&#45;&gt;BN_DoNothing</title>
<path fill="none" stroke="black" d="M154.92,-215.7C154.92,-208.41 154.92,-199.73 154.92,-191.54"/>
<polygon fill="black" stroke="black" points="158.42,-191.62 154.92,-181.62 151.42,-191.62 158.42,-191.62"/>
</g>
<!-- BN_DetectCritter -->
<g id="node6" class="node">
<title>BN_DetectCritter</title>
<ellipse fill="gray" stroke="black" cx="261.92" cy="-162" rx="45.61" ry="18"/>
<text xml:space="preserve" text-anchor="middle" x="261.92" y="-158.7" font-family="Times,serif" font-size="9.00">BN_DetectCritter</text>
</g>
<!-- Flee&#45;&gt;BN_DetectCritter -->
<g id="edge5" class="edge">
<title>Flee&#45;&gt;BN_DetectCritter</title>
<path fill="none" stroke="black" d="M305.58,-215.7C298.74,-207.44 290.42,-197.39 282.88,-188.3"/>
<polygon fill="black" stroke="black" points="285.73,-186.25 276.66,-180.79 280.34,-190.72 285.73,-186.25"/>
</g>
<!-- BN_FleeFromCritter -->
<g id="node7" class="node">
<title>BN_FleeFromCritter</title>
<ellipse fill="gray" stroke="black" cx="377.92" cy="-162" rx="52.6" ry="18"/>
<text xml:space="preserve" text-anchor="middle" x="377.92" y="-158.7" font-family="Times,serif" font-size="9.00">BN_FleeFromCritter</text>
</g>
<!-- Flee&#45;&gt;BN_FleeFromCritter -->
<g id="edge6" class="edge">
<title>Flee&#45;&gt;BN_FleeFromCritter</title>
<path fill="none" stroke="black" d="M334.26,-215.7C341.1,-207.44 349.42,-197.39 356.96,-188.3"/>
<polygon fill="black" stroke="black" points="359.5,-190.72 363.18,-180.79 354.11,-186.25 359.5,-190.72"/>
</g>
<!-- Full -->
<g id="node9" class="node">
<title>Full</title>
<polygon fill="orange" stroke="black" points="502.92,-180 448.92,-180 448.92,-144 502.92,-144 502.92,-180"/>
<text xml:space="preserve" text-anchor="middle" x="475.92" y="-158.7" font-family="Times,serif" font-size="9.00">Ⓜ Full</text>
</g>
<!-- Selector&#45;&gt;Full -->
<g id="edge8" class="edge">
<title>Selector&#45;&gt;Full</title>
<path fill="none" stroke="black" d="M475.92,-215.7C475.92,-208.41 475.92,-199.73 475.92,-191.54"/>
<polygon fill="black" stroke="black" points="479.42,-191.62 475.92,-181.62 472.42,-191.62 479.42,-191.62"/>
</g>
<!-- NotFull -->
<g id="node12" class="node">
<title>NotFull</title>
<polygon fill="cyan" stroke="black" points="608.52,-154.54 608.52,-169.46 592.35,-180 569.49,-180 553.32,-169.46 553.32,-154.54 569.49,-144 592.35,-144 608.52,-154.54"/>
<text xml:space="preserve" text-anchor="middle" x="580.92" y="-158.7" font-family="Times,serif" font-size="9.00">NotFull</text>
</g>
<!-- Selector&#45;&gt;NotFull -->
<g id="edge11" class="edge">
<title>Selector&#45;&gt;NotFull</title>
<path fill="none" stroke="black" d="M494.69,-220.49C510.79,-209.75 534.23,-194.13 552.61,-181.87"/>
<polygon fill="black" stroke="black" points="554.32,-184.94 560.7,-176.48 550.43,-179.12 554.32,-184.94"/>
</g>
<!-- BN_CheckInventoryFull -->
<g id="node10" class="node">
<title>BN_CheckInventoryFull</title>
<ellipse fill="gray" stroke="black" cx="347.92" cy="-90" rx="60.91" ry="18"/>
<text xml:space="preserve" text-anchor="middle" x="347.92" y="-86.7" font-family="Times,serif" font-size="9.00">BN_CheckInventoryFull</text>
</g>
<!-- Full&#45;&gt;BN_CheckInventoryFull -->
<g id="edge9" class="edge">
<title>Full&#45;&gt;BN_CheckInventoryFull</title>
<path fill="none" stroke="black" d="M448.46,-145.98C430.19,-135.99 405.96,-122.74 385.86,-111.75"/>
<polygon fill="black" stroke="black" points="387.56,-108.69 377.1,-106.96 384.2,-114.83 387.56,-108.69"/>
</g>
<!-- BN_ReturnToBase -->
<g id="node11" class="node">
<title>BN_ReturnToBase</title>
<ellipse fill="gray" stroke="black" cx="475.92" cy="-90" rx="49.1" ry="18"/>
<text xml:space="preserve" text-anchor="middle" x="475.92" y="-86.7" font-family="Times,serif" font-size="9.00">BN_ReturnToBase</text>
</g>
<!-- Full&#45;&gt;BN_ReturnToBase -->
<g id="edge10" class="edge">
<title>Full&#45;&gt;BN_ReturnToBase</title>
<path fill="none" stroke="black" d="M475.92,-143.7C475.92,-136.41 475.92,-127.73 475.92,-119.54"/>
<polygon fill="black" stroke="black" points="479.42,-119.62 475.92,-109.62 472.42,-119.62 479.42,-119.62"/>
</g>
<!-- DetectFlower -->
<g id="node13" class="node">
<title>DetectFlower</title>
<polygon fill="orange" stroke="black" points="618.54,-108 543.29,-108 543.29,-72 618.54,-72 618.54,-108"/>
<text xml:space="preserve" text-anchor="middle" x="580.92" y="-86.7" font-family="Times,serif" font-size="9.00">Ⓜ DetectFlower</text>
</g>
<!-- NotFull&#45;&gt;DetectFlower -->
<g id="edge12" class="edge">
<title>NotFull&#45;&gt;DetectFlower</title>
<path fill="none" stroke="black" d="M580.92,-143.7C580.92,-136.41 580.92,-127.73 580.92,-119.54"/>
<polygon fill="black" stroke="black" points="584.42,-119.62 580.92,-109.62 577.42,-119.62 584.42,-119.62"/>
</g>
<!-- BN_AvoidObstacle -->
<g id="node16" class="node">
<title>BN_AvoidObstacle</title>
<ellipse fill="gray" stroke="black" cx="686.92" cy="-90" rx="49.98" ry="18"/>
<text xml:space="preserve" text-anchor="middle" x="686.92" y="-86.7" font-family="Times,serif" font-size="9.00">BN_AvoidObstacle</text>
</g>
<!-- NotFull&#45;&gt;BN_AvoidObstacle -->
<g id="edge15" class="edge">
<title>NotFull&#45;&gt;BN_AvoidObstacle</title>
<path fill="none" stroke="black" d="M599.87,-148.49C614.94,-138.53 636.39,-124.37 654.22,-112.59"/>
<polygon fill="black" stroke="black" points="656.02,-115.6 662.43,-107.17 652.16,-109.76 656.02,-115.6"/>
</g>
<!-- BN_DetectFlower -->
<g id="node14" class="node">
<title>BN_DetectFlower</title>
<ellipse fill="gray" stroke="black" cx="524.92" cy="-18" rx="47.36" ry="18"/>
<text xml:space="preserve" text-anchor="middle" x="524.92" y="-14.7" font-family="Times,serif" font-size="9.00">BN_DetectFlower</text>
</g>
<!-- DetectFlower&#45;&gt;BN_DetectFlower -->
<g id="edge13" class="edge">
<title>DetectFlower&#45;&gt;BN_DetectFlower</title>
<path fill="none" stroke="black" d="M567.08,-71.7C560.54,-63.52 552.6,-53.6 545.39,-44.58"/>
<polygon fill="black" stroke="black" points="548.14,-42.43 539.16,-36.8 542.68,-46.8 548.14,-42.43"/>
</g>
<!-- BN_GoToFlower -->
<g id="node15" class="node">
<title>BN_GoToFlower</title>
<ellipse fill="gray" stroke="black" cx="636.92" cy="-18" rx="46.48" ry="18"/>
<text xml:space="preserve" text-anchor="middle" x="636.92" y="-14.7" font-family="Times,serif" font-size="9.00">BN_GoToFlower</text>
</g>
<!-- DetectFlower&#45;&gt;BN_GoToFlower -->
<g id="edge14" class="edge">
<title>DetectFlower&#45;&gt;BN_GoToFlower</title>
<path fill="none" stroke="black" d="M594.76,-71.7C601.3,-63.52 609.24,-53.6 616.45,-44.58"/>
<polygon fill="black" stroke="black" points="619.16,-46.8 622.68,-36.8 613.7,-42.43 619.16,-46.8"/>
</g>
</g>
</svg>
