<?xml version="1.0" encoding="UTF-8" standalone="no"?>
<!DOCTYPE svg PUBLIC "-//W3C//DTD SVG 1.1//EN"
 "http://www.w3.org/Graphics/SVG/1.1/DTD/svg11.dtd">
<!-- Generated by graphviz version 14.1.2 (20260124.0452)
 -->
<!-- Title: pastafarianism Pages: 1 -->
<svg width="603pt" height="404pt"
 viewBox="0.00 0.00 603.00 404.00" xmlns="http://www.w3.org/2000/svg" xmlns:xlink="http://www.w3.org/1999/xlink">
<g id="graph0" class="graph" transform="scale(1 1) rotate(0) translate(4 400)">
<title>pastafarianism</title>
<polygon fill="white" stroke="none" points="-4,4 -4,-400 598.71,-400 598.71,4 -4,4"/>
<!-- BTRoam -->
<g id="node1" class="node">
<title>BTRoam</title>
<polygon fill="cyan" stroke="black" points="236.46,-370.54 236.46,-385.46 214.47,-396 183.37,-396 161.38,-385.46 161.38,-370.54 183.37,-360 214.47,-360 236.46,-370.54"/>
<text xml:space="preserve" text-anchor="middle" x="198.92" y="-374.7" font-family="Times,serif" font-size="9.00">Ⓜ BTRoam</text>
</g>
<!-- DetectFrozen -->
<g id="node2" class="node">
<title>DetectFrozen</title>
<polygon fill="orange" stroke="black" points="191.17,-324 116.67,-324 116.67,-288 191.17,-288 191.17,-324"/>
<text xml:space="preserve" text-anchor="middle" x="153.92" y="-302.7" font-family="Times,serif" font-size="9.00">Ⓜ DetectFrozen</text>
</g>
<!-- BTRoam&#45;&gt;DetectFrozen -->
<g id="edge1" class="edge">
<title>BTRoam&#45;&gt;DetectFrozen</title>
<path fill="none" stroke="black" d="M187.8,-359.7C182.73,-351.81 176.61,-342.3 170.98,-333.55"/>
<polygon fill="black" stroke="black" points="174.09,-331.9 165.73,-325.38 168.2,-335.68 174.09,-331.9"/>
</g>
<!-- Selector -->
<g id="node5" class="node">
<title>Selector</title>
<polygon fill="cyan" stroke="black" points="279.09,-298.54 279.09,-313.46 258.49,-324 229.35,-324 208.75,-313.46 208.75,-298.54 229.35,-288 258.49,-288 279.09,-298.54"/>
<text xml:space="preserve" text-anchor="middle" x="243.92" y="-302.7" font-family="Times,serif" font-size="9.00">Ⓜ Selector</text>
</g>
<!-- BTRoam&#45;&gt;Selector -->
<g id="edge4" class="edge">
<title>BTRoam&#45;&gt;Selector</title>
<path fill="none" stroke="black" d="M210.04,-359.7C215.11,-351.81 221.22,-342.3 226.85,-333.55"/>
<polygon fill="black" stroke="black" points="229.64,-335.68 232.11,-325.38 223.75,-331.9 229.64,-335.68"/>
</g>
<!-- BN_DetectFrozen -->
<g id="node3" class="node">
<title>BN_DetectFrozen</title>
<ellipse fill="gray" stroke="black" cx="46.92" cy="-234" rx="46.92" ry="18"/>
<text xml:space="preserve" text-anchor="middle" x="46.92" y="-230.7" font-family="Times,serif" font-size="9.00">BN_DetectFrozen</text>
</g>
<!-- DetectFrozen&#45;&gt;BN_DetectFrozen -->
<g id="edge2" class="edge">
<title>DetectFrozen&#45;&gt;BN_DetectFrozen</title>
<path fill="none" stroke="black" d="M127.19,-287.52C112.77,-278.08 94.86,-266.36 79.61,-256.39"/>
<polygon fill="black" stroke="black" points="81.59,-253.5 71.31,-250.95 77.76,-259.36 81.59,-253.5"/>
</g>
<!-- BN_DoNothing -->
<g id="node4" class="node">
<title>BN_DoNothing</title>
<ellipse fill="gray" stroke="black" cx="154.92" cy="-234" rx="42.99" ry="18"/>
<text xml:space="preserve" text-anchor="middle" x="154.92" y="-230.7" font-family="Times,serif" font-size="9.00">BN_DoNothing</text>
</g>
<!-- DetectFrozen&#45;&gt;BN_DoNothing -->
<g id="edge3" class="edge">
<title>DetectFrozen&#45;&gt;BN_DoNothing</title>
<path fill="none" stroke="black" d="M154.17,-287.7C154.27,-280.41 154.39,-271.73 154.51,-263.54"/>
<polygon fill="black" stroke="black" points="158.01,-263.67 154.65,-253.62 151.01,-263.57 158.01,-263.67"/>
</g>
<!-- Full -->
<g id="node6" class="node">
<title>Full</title>
<polygon fill="orange" stroke="black" points="270.92,-252 216.92,-252 216.92,-216 270.92,-216 270.92,-252"/>
<text xml:space="preserve" text-anchor="middle" x="243.92" y="-230.7" font-family="Times,serif" font-size="9.00">Ⓜ Full</text>
</g>
<!-- Selector&#45;&gt;Full -->
<g id="edge5" class="edge">
<title>Selector&#45;&gt;Full</title>
<path fill="none" stroke="black" d="M243.92,-287.7C243.92,-280.41 243.92,-271.73 243.92,-263.54"/>
<polygon fill="black" stroke="black" points="247.42,-263.62 243.92,-253.62 240.42,-263.62 247.42,-263.62"/>
</g>
<!-- NotFull -->
<g id="node9" class="node">
<title>NotFull</title>
<polygon fill="cyan" stroke="black" points="376.52,-226.54 376.52,-241.46 360.35,-252 337.49,-252 321.32,-241.46 321.32,-226.54 337.49,-216 360.35,-216 376.52,-226.54"/>
<text xml:space="preserve" text-anchor="middle" x="348.92" y="-230.7" font-family="Times,serif" font-size="9.00">NotFull</text>
</g>
<!-- Selector&#45;&gt;NotFull -->
<g id="edge8" class="edge">
<title>Selector&#45;&gt;NotFull</title>
<path fill="none" stroke="black" d="M264.92,-291C280.97,-280.3 303.27,-265.43 320.86,-253.71"/>
<polygon fill="black" stroke="black" points="322.44,-256.86 328.82,-248.4 318.55,-251.04 322.44,-256.86"/>
</g>
<!-- BN_CheckInventoryFull -->
<g id="node7" class="node">
<title>BN_CheckInventoryFull</title>
<ellipse fill="gray" stroke="black" cx="115.92" cy="-162" rx="60.91" ry="18"/>
<text xml:space="preserve" text-anchor="middle" x="115.92" y="-158.7" font-family="Times,serif" font-size="9.00">BN_CheckInventoryFull</text>
</g>
<!-- Full&#45;&gt;BN_CheckInventoryFull -->
<g id="edge6" class="edge">
<title>Full&#45;&gt;BN_CheckInventoryFull</title>
<path fill="none" stroke="black" d="M216.46,-217.98C198.19,-207.99 173.96,-194.74 153.86,-183.75"/>
<polygon fill="black" stroke="black" points="155.56,-180.69 145.1,-178.96 152.2,-186.83 155.56,-180.69"/>
</g>
<!-- BN_ReturnToBase -->
<g id="node8" class="node">
<title>BN_ReturnToBase</title>
<ellipse fill="gray" stroke="black" cx="243.92" cy="-162" rx="49.1" ry="18"/>
<text xml:space="preserve" text-anchor="middle" x="243.92" y="-158.7" font-family="Times,serif" font-size="9.00">BN_ReturnToBase</text>
</g>
<!-- Full&#45;&gt;BN_ReturnToBase -->
<g id="edge7" class="edge">
<title>Full&#45;&gt;BN_ReturnToBase</title>
<path fill="none" stroke="black" d="M243.92,-215.7C243.92,-208.41 243.92,-199.73 243.92,-191.54"/>
<polygon fill="black" stroke="black" points="247.42,-191.62 243.92,-181.62 240.42,-191.62 247.42,-191.62"/>
</g>
<!-- DetectFlower -->
<g id="node10" class="node">
<title>DetectFlower</title>
<polygon fill="orange" stroke="black" points="386.54,-180 311.29,-180 311.29,-144 386.54,-144 386.54,-180"/>
<text xml:space="preserve" text-anchor="middle" x="348.92" y="-158.7" font-family="Times,serif" font-size="9.00">Ⓜ DetectFlower</text>
</g>
<!-- NotFull&#45;&gt;DetectFlower -->
<g id="edge9" class="edge">
<title>NotFull&#45;&gt;DetectFlower</title>
<path fill="none" stroke="black" d="M348.92,-215.7C348.92,-208.41 348.92,-199.73 348.92,-191.54"/>
<polygon fill="black" stroke="black" points="352.42,-191.62 348.92,-181.62 345.42,-191.62 352.42,-191.62"/>
</g>
<!-- Roaming -->
<g id="node13" class="node">
<title>Roaming</title>
<polygon fill="cyan" stroke="black" points="470.36,-154.54 470.36,-169.46 452.53,-180 427.31,-180 409.48,-169.46 409.48,-154.54 427.31,-144 452.53,-144 470.36,-154.54"/>
<text xml:space="preserve" text-anchor="middle" x="439.92" y="-158.7" font-family="Times,serif" font-size="9.00">Roaming</text>
</g>
<!-- NotFull&#45;&gt;Roaming -->
<g id="edge12" class="edge">
<title>NotFull&#45;&gt;Roaming</title>
<path fill="none" stroke="black" d="M366.46,-219.5C379.64,-209.37 397.92,-195.31 412.94,-183.75"/>
<polygon fill="black" stroke="black" points="414.81,-186.73 420.6,-177.86 410.54,-181.18 414.81,-186.73"/>
</g>
<!-- BN_DetectFlower -->
<g id="node11" class="node">
<title>BN_DetectFlower</title>
<ellipse fill="gray" stroke="black" cx="236.92" cy="-90" rx="47.36" ry="18"/>
<text xml:space="preserve" text-anchor="middle" x="236.92" y="-86.7" font-family="Times,serif" font-size="9.00">BN_DetectFlower</text>
</g>
<!-- DetectFlower&#45;&gt;BN_DetectFlower -->
<g id="edge10" class="edge">
<title>DetectFlower&#45;&gt;BN_DetectFlower</title>
<path fill="none" stroke="black" d="M320.95,-143.52C305.6,-133.93 286.47,-121.97 270.34,-111.89"/>
<polygon fill="black" stroke="black" points="272.37,-109.03 262.03,-106.7 268.66,-114.96 272.37,-109.03"/>
</g>
<!-- BN_GoToFlower -->
<g id="node12" class="node">
<title>BN_GoToFlower</title>
<ellipse fill="gray" stroke="black" cx="348.92" cy="-90" rx="46.48" ry="18"/>
<text xml:space="preserve" text-anchor="middle" x="348.92" y="-86.7" font-family="Times,serif" font-size="9.00">BN_GoToFlower</text>
</g>
<!-- DetectFlower&#45;&gt;BN_GoToFlower -->
<g id="edge11" class="edge">
<title>DetectFlower&#45;&gt;BN_GoToFlower</title>
<path fill="none" stroke="black" d="M348.92,-143.7C348.92,-136.41 348.92,-127.73 348.92,-119.54"/>
<polygon fill="black" stroke="black" points="352.42,-119.62 348.92,-109.62 345.42,-119.62 352.42,-119.62"/>
</g>
<!-- Obstacle -->
<g id="node14" class="node">
<title>Obstacle</title>
<polygon fill="orange" stroke="black" points="466.92,-108 412.92,-108 412.92,-72 466.92,-72 466.92,-108"/>
<text xml:space="preserve" text-anchor="middle" x="439.92" y="-86.7" font-family="Times,serif" font-size="9.00">Obstacle</text>
</g>
<!-- Roaming&#45;&gt;Obstacle -->
<g id="edge13" class="edge">
<title>Roaming&#45;&gt;Obstacle</title>
<path fill="none" stroke="black" d="M439.92,-143.7C439.92,-136.41 439.92,-127.73 439.92,-119.54"/>
<polygon fill="black" stroke="black" points="443.42,-119.62 439.92,-109.62 436.42,-119.62 443.42,-119.62"/>
</g>
<!-- BN_ForwardRandom -->
<g id="node17" class="node">
<title>BN_ForwardRandom</title>
<ellipse fill="gray" stroke="black" cx="539.92" cy="-90" rx="54.79" ry="18"/>
<text xml:space="preserve" text-anchor="middle" x="539.92" y="-86.7" font-family="Times,serif" font-size="9.00">BN_ForwardRandom</text>
</g>
<!-- Roaming&#45;&gt;BN_ForwardRandom -->
<g id="edge16" class="edge">
<title>Roaming&#45;&gt;BN_ForwardRandom</title>
<path fill="none" stroke="black" d="M459.2,-147.5C473.15,-137.74 492.3,-124.33 508.46,-113.02"/>
<polygon fill="black" stroke="black" points="510.13,-116.12 516.32,-107.52 506.12,-110.39 510.13,-116.12"/>
</g>
<!-- BN_DetectObstacle -->
<g id="node15" class="node">
<title>BN_DetectObstacle</title>
<ellipse fill="gray" stroke="black" cx="390.92" cy="-18" rx="50.42" ry="18"/>
<text xml:space="preserve" text-anchor="middle" x="390.92" y="-14.7" font-family="Times,serif" font-size="9.00">BN_DetectObstacle</text>
</g>
<!-- Obstacle&#45;&gt;BN_DetectObstacle -->
<g id="edge14" class="edge">
<title>Obstacle&#45;&gt;BN_DetectObstacle</title>
<path fill="none" stroke="black" d="M427.81,-71.7C422.15,-63.61 415.29,-53.81 409.03,-44.87"/>
<polygon fill="black" stroke="black" points="412.02,-43.05 403.42,-36.86 406.29,-47.06 412.02,-43.05"/>
</g>
<!-- BN_Turn -->
<g id="node16" class="node">
<title>BN_Turn</title>
<ellipse fill="gray" stroke="black" cx="488.92" cy="-18" rx="29.43" ry="18"/>
<text xml:space="preserve" text-anchor="middle" x="488.92" y="-14.7" font-family="Times,serif" font-size="9.00">BN_Turn</text>
</g>
<!-- Obstacle&#45;&gt;BN_Turn -->
<g id="edge15" class="edge">
<title>Obstacle&#45;&gt;BN_Turn</title>
<path fill="none" stroke="black" d="M452.03,-71.7C457.86,-63.37 464.96,-53.23 471.36,-44.08"/>
<polygon fill="black" stroke="black" points="474.21,-46.11 477.08,-35.91 468.48,-42.1 474.21,-46.11"/>
</g>
</g>
</svg>
