<?xml version="1.0" encoding="UTF-8" standalone="no"?>
<!DOCTYPE svg PUBLIC "-//W3C//DTD SVG 1.1//EN"
 "http://www.w3.org/Graphics/SVG/1.1/DTD/svg11.dtd">
<!-- Generated by graphviz version 14.1.2 (20260124.0452)
 -->
<!-- Title: pastafarianism Pages: 1 -->
<svg width="469pt" height="188pt"
 viewBox="0.00 0.00 469.00 188.00" xmlns="http://www.w3.org/2000/svg" xmlns:xlink="http://www.w3.org/1999/xlink">
<g id="graph0" class="graph" transform="scale(1 1) rotate(0) translate(4 184)">
<title>pastafarianism</title>
<polygon fill="white" stroke="none" points="-4,4 -4,-184 465.39,-184 465.39,4 -4,4"/>
<!-- BTRoam -->
<g id="node1" class="node">
<title>BTRoam</title>
<polygon fill="cyan" stroke="black" points="333.35,-154.54 333.35,-169.46 315.52,-180 290.3,-180 272.47,-169.46 272.47,-154.54 290.3,-144 315.52,-144 333.35,-154.54"/>
<text xml:space="preserve" text-anchor="middle" x="302.91" y="-158.7" font-family="Times,serif" font-size="9.00">BTRoam</text>
</g>
<!-- Full -->
<g id="node2" class="node">
<title>Full</title>
<polygon fill="orange" stroke="black" points="215.91,-108 161.91,-108 161.91,-72 215.91,-72 215.91,-108"/>
<text xml:space="preserve" text-anchor="middle" x="188.91" y="-86.7" font-family="Times,serif" font-size="9.00">Ⓜ Full</text>
</g>
<!-- BTRoam&#45;&gt;Full -->
<g id="edge1" class="edge">
<title>BTRoam&#45;&gt;Full</title>
<path fill="none" stroke="black" d="M282.26,-148.32C266.6,-138.71 244.65,-125.23 225.97,-113.76"/>
<polygon fill="black" stroke="black" points="227.91,-110.84 217.56,-108.59 224.25,-116.81 227.91,-110.84"/>
</g>
<!-- DetectFlower -->
<g id="node5" class="node">
<title>DetectFlower</title>
<polygon fill="orange" stroke="black" points="340.53,-108 265.28,-108 265.28,-72 340.53,-72 340.53,-108"/>
<text xml:space="preserve" text-anchor="middle" x="302.91" y="-86.7" font-family="Times,serif" font-size="9.00">Ⓜ DetectFlower</text>
</g>
<!-- BTRoam&#45;&gt;DetectFlower -->
<g id="edge4" class="edge">
<title>BTRoam&#45;&gt;DetectFlower</title>
<path fill="none" stroke="black" d="M302.91,-143.7C302.91,-136.41 302.91,-127.73 302.91,-119.54"/>
<polygon fill="black" stroke="black" points="306.41,-119.62 302.91,-109.62 299.41,-119.62 306.41,-119.62"/>
</g>
<!-- BN_AvoidObstacle -->
<g id="node8" class="node">
<title>BN_AvoidObstacle</title>
<ellipse fill="gray" stroke="black" cx="408.91" cy="-90" rx="49.98" ry="18"/>
<text xml:space="preserve" text-anchor="middle" x="408.91" y="-86.7" font-family="Times,serif" font-size="9.00">BN_AvoidObstacle</text>
</g>
<!-- BTRoam&#45;&gt;BN_AvoidObstacle -->
<g id="edge7" class="edge">
<title>BTRoam&#45;&gt;BN_AvoidObstacle</title>
<path fill="none" stroke="black" d="M322.85,-147.83C337.92,-137.88 358.95,-123.99 376.44,-112.44"/>
<polygon fill="black" stroke="black" points="378.06,-115.57 384.47,-107.14 374.2,-109.73 378.06,-115.57"/>
</g>
<!-- BN_CheckInventoryFull -->
<g id="node3" class="node">
<title>BN_CheckInventoryFull</title>
<ellipse fill="gray" stroke="black" cx="60.91" cy="-18" rx="60.91" ry="18"/>
<text xml:space="preserve" text-anchor="middle" x="60.91" y="-14.7" font-family="Times,serif" font-size="9.00">BN_CheckInventoryFull</text>
</g>
<!-- Full&#45;&gt;BN_CheckInventoryFull -->
<g id="edge2" class="edge">
<title>Full&#45;&gt;BN_CheckInventoryFull</title>
<path fill="none" stroke="black" d="M161.45,-73.98C143.18,-63.99 118.94,-50.74 98.84,-39.75"/>
<polygon fill="black" stroke="black" points="100.54,-36.69 90.09,-34.96 97.19,-42.83 100.54,-36.69"/>
</g>
<!-- BN_ReturnToBase -->
<g id="node4" class="node">
<title>BN_ReturnToBase</title>
<ellipse fill="gray" stroke="black" cx="188.91" cy="-18" rx="49.1" ry="18"/>
<text xml:space="preserve" text-anchor="middle" x="188.91" y="-14.7" font-family="Times,serif" font-size="9.00">BN_ReturnToBase</text>
</g>
<!-- Full&#45;&gt;BN_ReturnToBase -->
<g id="edge3" class="edge">
<title>Full&#45;&gt;BN_ReturnToBase</title>
<path fill="none" stroke="black" d="M188.91,-71.7C188.91,-64.41 188.91,-55.73 188.91,-47.54"/>
<polygon fill="black" stroke="black" points="192.41,-47.62 188.91,-37.62 185.41,-47.62 192.41,-47.62"/>
</g>
<!-- BN_DetectFlower -->
<g id="node6" class="node">
<title>BN_DetectFlower</title>
<ellipse fill="gray" stroke="black" cx="302.91" cy="-18" rx="47.36" ry="18"/>
<text xml:space="preserve" text-anchor="middle" x="302.91" y="-14.7" font-family="Times,serif" font-size="9.00">BN_DetectFlower</text>
</g>
<!-- DetectFlower&#45;&gt;BN_DetectFlower -->
<g id="edge5" class="edge">
<title>DetectFlower&#45;&gt;BN_DetectFlower</title>
<path fill="none" stroke="black" d="M302.91,-71.7C302.91,-64.41 302.91,-55.73 302.91,-47.54"/>
<polygon fill="black" stroke="black" points="306.41,-47.62 302.91,-37.62 299.41,-47.62 306.41,-47.62"/>
</g>
<!-- BN_GoToFlower -->
<g id="node7" class="node">
<title>BN_GoToFlower</title>
<ellipse fill="gray" stroke="black" cx="414.91" cy="-18" rx="46.48" ry="18"/>
<text xml:space="preserve" text-anchor="middle" x="414.91" y="-14.7" font-family="Times,serif" font-size="9.00">BN_GoToFlower</text>
</g>
<!-- DetectFlower&#45;&gt;BN_GoToFlower -->
<g id="edge6" class="edge">
<title>DetectFlower&#45;&gt;BN_GoToFlower</title>
<path fill="none" stroke="black" d="M330.88,-71.52C346.23,-61.93 365.36,-49.97 381.48,-39.89"/>
<polygon fill="black" stroke="black" points="383.17,-42.96 389.79,-34.7 379.46,-37.03 383.17,-42.96"/>
</g>
</g>
</svg>
