<?xml version="1.0" encoding="UTF-8" standalone="no"?>
<!DOCTYPE svg PUBLIC "-//W3C//DTD SVG 1.1//EN"
 "http://www.w3.org/Graphics/SVG/1.1/DTD/svg11.dtd">
<!-- Generated by graphviz version 14.1.2 (20260124.0452)
 -->
<!-- Title: pastafarianism Pages: 1 -->
<svg width="548pt" height="332pt"
 viewBox="0.00 0.00 548.00 332.00" xmlns="http://www.w3.org/2000/svg" xmlns:xlink="http://www.w3.org/1999/xlink">
<g id="graph0" class="graph" transform="scale(1 1) rotate(0) translate(4 328)">
<title>pastafarianism</title>
<polygon fill="white" stroke="none" points="-4,4 -4,-328 543.7,-328 543.7,4 -4,4"/>
<!-- Selector -->
<g id="node1" class="node">
<title>Selector</title>
<polygon fill="cyan" stroke="black" points="276.08,-298.54 276.08,-313.46 255.48,-324 226.34,-324 205.74,-313.46 205.74,-298.54 226.34,-288 255.48,-288 276.08,-298.54"/>
<text xml:space="preserve" text-anchor="middle" x="240.91" y="-302.7" font-family="Times,serif" font-size="9.00">Ⓜ Selector</text>
</g>
<!-- Full -->
<g id="node2" class="node">
<title>Full</title>
<polygon fill="orange" stroke="black" points="215.91,-252 161.91,-252 161.91,-216 215.91,-216 215.91,-252"/>
<text xml:space="preserve" text-anchor="middle" x="188.91" y="-230.7" font-family="Times,serif" font-size="9.00">Ⓜ Full</text>
</g>
<!-- Selector&#45;&gt;Full -->
<g id="edge1" class="edge">
<title>Selector&#45;&gt;Full</title>
<path fill="none" stroke="black" d="M228.05,-287.7C222.13,-279.73 214.98,-270.1 208.42,-261.26"/>
<polygon fill="black" stroke="black" points="211.29,-259.26 202.52,-253.32 205.67,-263.43 211.29,-259.26"/>
</g>
<!-- NotFull -->
<g id="node5" class="node">
<title>NotFull</title>
<polygon fill="cyan" stroke="black" points="321.51,-226.54 321.51,-241.46 305.34,-252 282.48,-252 266.31,-241.46 266.31,-226.54 282.48,-216 305.34,-216 321.51,-226.54"/>
<text xml:space="preserve" text-anchor="middle" x="293.91" y="-230.7" font-family="Times,serif" font-size="9.00">NotFull</text>
</g>
<!-- Selector&#45;&gt;NotFull -->
<g id="edge4" class="edge">
<title>Selector&#45;&gt;NotFull</title>
<path fill="none" stroke="black" d="M254.01,-287.7C260.2,-279.52 267.71,-269.6 274.54,-260.58"/>
<polygon fill="black" stroke="black" points="277.16,-262.91 280.41,-252.83 271.58,-258.69 277.16,-262.91"/>
</g>
<!-- BN_CheckInventoryFull -->
<g id="node3" class="node">
<title>BN_CheckInventoryFull</title>
<ellipse fill="gray" stroke="black" cx="60.91" cy="-162" rx="60.91" ry="18"/>
<text xml:space="preserve" text-anchor="middle" x="60.91" y="-158.7" font-family="Times,serif" font-size="9.00">BN_CheckInventoryFull</text>
</g>
<!-- Full&#45;&gt;BN_CheckInventoryFull -->
<g id="edge2" class="edge">
<title>Full&#45;&gt;BN_CheckInventoryFull</title>
<path fill="none" stroke="black" d="M161.45,-217.98C143.18,-207.99 118.94,-194.74 98.84,-183.75"/>
<polygon fill="black" stroke="black" points="100.54,-180.69 90.09,-178.96 97.19,-186.83 100.54,-180.69"/>
</g>
<!-- BN_ReturnToBase -->
<g id="node4" class="node">
<title>BN_ReturnToBase</title>
<ellipse fill="gray" stroke="black" cx="188.91" cy="-162" rx="49.1" ry="18"/>
<text xml:space="preserve" text-anchor="middle" x="188.91" y="-158.7" font-family="Times,serif" font-size="9.00">BN_ReturnToBase</text>
</g>
<!-- Full&#45;&gt;BN_ReturnToBase -->
<g id="edge3" class="edge">
<title>Full&#45;&gt;BN_ReturnToBase</title>
<path fill="none" stroke="black" d="M188.91,-215.7C188.91,-208.41 188.91,-199.73 188.91,-191.54"/>
<polygon fill="black" stroke="black" points="192.41,-191.62 188.91,-181.62 185.41,-191.62 192.41,-191.62"/>
</g>
<!-- DetectFlower -->
<g id="node6" class="node">
<title>DetectFlower</title>
<polygon fill="orange" stroke="black" points="331.53,-180 256.28,-180 256.28,-144 331.53,-144 331.53,-180"/>
<text xml:space="preserve" text-anchor="middle" x="293.91" y="-158.7" font-family="Times,serif" font-size="9.00">Ⓜ DetectFlower</text>
</g>
<!-- NotFull&#45;&gt;DetectFlower -->
<g id="edge5" class="edge">
<title>NotFull&#45;&gt;DetectFlower</title>
<path fill="none" stroke="black" d="M293.91,-215.7C293.91,-208.41 293.91,-199.73 293.91,-191.54"/>
<polygon fill="black" stroke="black" points="297.41,-191.62 293.91,-181.62 290.41,-191.62 297.41,-191.62"/>
</g>
<!-- Roaming -->
<g id="node9" class="node">
<title>Roaming</title>
<polygon fill="cyan" stroke="black" points="415.35,-154.54 415.35,-169.46 397.52,-180 372.3,-180 354.47,-169.46 354.47,-154.54 372.3,-144 397.52,-144 415.35,-154.54"/>
<text xml:space="preserve" text-anchor="middle" x="384.91" y="-158.7" font-family="Times,serif" font-size="9.00">Roaming</text>
</g>
<!-- NotFull&#45;&gt;Roaming -->
<g id="edge8" class="edge">
<title>NotFull&#45;&gt;Roaming</title>
<path fill="none" stroke="black" d="M311.45,-219.5C324.63,-209.37 342.9,-195.31 357.93,-183.75"/>
<polygon fill="black" stroke="black" points="359.8,-186.73 365.59,-177.86 355.53,-181.18 359.8,-186.73"/>
</g>
<!-- BN_DetectFlower -->
<g id="node7" class="node">
<title>BN_DetectFlower</title>
<ellipse fill="gray" stroke="black" cx="181.91" cy="-90" rx="47.36" ry="18"/>
<text xml:space="preserve" text-anchor="middle" x="181.91" y="-86.7" font-family="Times,serif" font-size="9.00">BN_DetectFlower</text>
</g>
<!-- DetectFlower&#45;&gt;BN_DetectFlower -->
<g id="edge6" class="edge">
<title>DetectFlower&#45;&gt;BN_DetectFlower</title>
<path fill="none" stroke="black" d="M265.93,-143.52C250.59,-133.93 231.46,-121.97 215.33,-111.89"/>
<polygon fill="black" stroke="black" points="217.36,-109.03 207.02,-106.7 213.65,-114.96 217.36,-109.03"/>
</g>
<!-- BN_GoToFlower -->
<g id="node8" class="node">
<title>BN_GoToFlower</title>
<ellipse fill="gray" stroke="black" cx="293.91" cy="-90" rx="46.48" ry="18"/>
<text xml:space="preserve" text-anchor="middle" x="293.91" y="-86.7" font-family="Times,serif" font-size="9.00">BN_GoToFlower</text>
</g>
<!-- DetectFlower&#45;&gt;BN_GoToFlower -->
<g id="edge7" class="edge">
<title>DetectFlower&#45;&gt;BN_GoToFlower</title>
<path fill="none" stroke="black" d="M293.91,-143.7C293.91,-136.41 293.91,-127.73 293.91,-119.54"/>
<polygon fill="black" stroke="black" points="297.41,-119.62 293.91,-109.62 290.41,-119.62 297.41,-119.62"/>
</g>
<!-- Obstacle -->
<g id="node10" class="node">
<title>Obstacle</title>
<polygon fill="orange" stroke="black" points="411.91,-108 357.91,-108 357.91,-72 411.91,-72 411.91,-108"/>
<text xml:space="preserve" text-anchor="middle" x="384.91" y="-86.7" font-family="Times,serif" font-size="9.00">Obstacle</text>
</g>
<!-- Roaming&#45;&gt;Obstacle -->
<g id="edge9" class="edge">
<title>Roaming&#45;&gt;Obstacle</title>
<path fill="none" stroke="black" d="M384.91,-143.7C384.91,-136.41 384.91,-127.73 384.91,-119.54"/>
<polygon fill="black" stroke="black" points="388.41,-119.62 384.91,-109.62 381.41,-119.62 388.41,-119.62"/>
</g>
<!-- BN_ForwardRandom -->
<g id="node13" class="node">
<title>BN_ForwardRandom</title>
<ellipse fill="gray" stroke="black" cx="484.91" cy="-90" rx="54.79" ry="18"/>
<text xml:space="preserve" text-anchor="middle" x="484.91" y="-86.7" font-family="Times,serif" font-size="9.00">BN_ForwardRandom</text>
</g>
<!-- Roaming&#45;&gt;BN_ForwardRandom -->
<g id="edge12" class="edge">
<title>Roaming&#45;&gt;BN_ForwardRandom</title>
<path fill="none" stroke="black" d="M404.19,-147.5C418.14,-137.74 437.29,-124.33 453.44,-113.02"/>
<polygon fill="black" stroke="black" points="455.12,-116.12 461.3,-107.52 451.1,-110.39 455.12,-116.12"/>
</g>
<!-- BN_DetectObstacle -->
<g id="node11" class="node">
<title>BN_DetectObstacle</title>
<ellipse fill="gray" stroke="black" cx="335.91" cy="-18" rx="50.42" ry="18"/>
<text xml:space="preserve" text-anchor="middle" x="335.91" y="-14.7" font-family="Times,serif" font-size="9.00">BN_DetectObstacle</text>
</g>
<!-- Obstacle&#45;&gt;BN_DetectObstacle -->
<g id="edge10" class="edge">
<title>Obstacle&#45;&gt;BN_DetectObstacle</title>
<path fill="none" stroke="black" d="M372.8,-71.7C367.13,-63.61 360.28,-53.81 354.02,-44.87"/>
<polygon fill="black" stroke="black" points="357.01,-43.05 348.41,-36.86 351.28,-47.06 357.01,-43.05"/>
</g>
<!-- BN_Turn -->
<g id="node12" class="node">
<title>BN_Turn</title>
<ellipse fill="gray" stroke="black" cx="433.91" cy="-18" rx="29.43" ry="18"/>
<text xml:space="preserve" text-anchor="middle" x="433.91" y="-14.7" font-family="Times,serif" font-size="9.00">BN_Turn</text>
</g>
<!-- Obstacle&#45;&gt;BN_Turn -->
<g id="edge11" class="edge">
<title>Obstacle&#45;&gt;BN_Turn</title>
<path fill="none" stroke="black" d="M397.02,-71.7C402.85,-63.37 409.94,-53.23 416.35,-44.08"/>
<polygon fill="black" stroke="black" points="419.2,-46.11 422.07,-35.91 413.47,-42.1 419.2,-46.11"/>
</g>
</g>
</svg>
